# xmcd
#
# Track frame offsets: 
#        150
#        13410
#        30918
#        46093
#        63258
#        77260
#        91730
#        108430
#        124625
#        141249
#
# Disc length: 2145 seconds
#
# Revision: 5
# Processed by: cddbd v1.5.2PL0 Copyright (c) Steve Scherf et al.
# Submitted via: ExactAudioCopy v1.0b1
#
DISCID=6f085f0a
DTITLE=Shelby Lynne - Soft Talk
DYEAR=1991
DGENRE=Country
TTITLE0=Don't Cross Your Heart
TTITLE1=I've Learned To Live
TTITLE2=Alive And Well
TTITLE3=A Lighter Shade Of Blue
TTITLE4=It Must Be You
TTITLE5=You Can't Break A Broken Heart
TTITLE6=Soft Talk
TTITLE7=The Very First Lasting Love
TTITLE8=Stop Me
TTITLE9=It Might Be Me
EXTD=
EXTT0=
EXTT1=
EXTT2=
EXTT3=
EXTT4=
EXTT5=
EXTT6=
EXTT7=
EXTT8=
EXTT9=
PLAYORDER=
